<?xml version="1.0" standalone="no"?><!DOCTYPE svg PUBLIC "-//W3C//DTD SVG 1.1//EN" "http://www.w3.org/Graphics/SVG/1.1/DTD/svg11.dtd"><svg t="1644475588670" class="icon" viewBox="0 0 1024 1024" version="1.1" xmlns="http://www.w3.org/2000/svg" p-id="12857" xmlns:xlink="http://www.w3.org/1999/xlink" width="200" height="200"><defs><style type="text/css"></style></defs><path d="M977.12 600.448c-10.08-39.552-33.728-68.576-69.6-87.552-13.824-7.296-28.288-13.408-42.272-20.384-6.528-3.264-12.64-7.296-18.912-11.072-1.344-0.832-2.432-2.08-4.352-3.744a167.936 167.936 0 0 0 80.768-33.44l-4.8 2.24c-19.648 9.472-39.424 18.624-61.248 21.952-5.376 0.832-10.848 0.832-16.256 1.536-4.928 0.64-7.392-1.696-9.312-5.92-7.104-15.68-5.824-31.52-1.216-47.392 1.792-6.176 4.256-12.192 6.624-18.208 30.08-76.352 4.608-151.392-65.696-193.664a244.16 244.16 0 0 0-53.056-24.096l-1.76-0.48a106.016 106.016 0 0 1-52.64-36.128c-11.2-14.112-21.696-28.832-32-43.616C594.112 46.912 543.104 15.296 478.944 4.544c-8.864-1.472-17.824-2.4-26.72-3.552h-38.848c-1.312 0.288-2.624 0.736-3.936 0.832-36.96 2.624-72.64 11.008-107.008 24.736-38.368 15.296-73.472 35.744-102.112 66.048-16.256 17.216-28.832 36.672-33.824 60.224-2.72 12.864-2.688 25.76 0.992 39.68 1.984-6.304 3.424-11.52 5.248-16.64 15.264-42.592 45.216-71.776 84.736-91.872 38.688-19.68 80.192-27.872 123.296-28.448 30.848-0.416 61.184 3.296 90.496 13.376 32.576 11.2 59.648 30.976 84.16 54.624 19.712 19.04 39.264 38.24 58.88 57.408 0.128 0.128-0.032 0.512-0.032 0.608-11.808-5.472-23.456-11.424-35.52-16.352a414.496 414.496 0 0 1-83.616-45.536c-44-31.2-93.376-45.152-147.392-41.824-29.536 1.824-58.144 8.576-86.784 15.648-15.552 3.84-27.808 13.056-41.6 20.576 1.344 2.688 2.368 4.992 3.616 7.168 8.768 15.36 21.6 26.72 36.384 35.84 38.944 24 82.144 35.104 127.008 40 28.416 3.104 57.088 3.744 85.568 6.464 37.536 3.616 74.528 10.336 110.048 23.456 23.52 8.672 45.568 19.936 63.04 38.528 3.84 4.096 7.136 8.704 10.688 13.088-8.256-3.296-15.68-7.424-23.392-10.784-35.104-15.328-72.352-22.592-109.856-28.608-29.408-4.704-58.976-8.544-88.32-13.568-27.488-4.704-54.752-10.784-82.208-15.68-23.296-4.16-46.656-7.776-69.088-15.68-32.32-11.392-56.672-31.264-68.864-64.224-0.192-0.544-0.768-0.928-1.344-1.632-4.576 6.368-8.608 12.736-13.376 18.464-4.096 4.896-4.832 10.048-4.16 16.096 2.688 24.608 15.328 43.648 33.024 59.872 19.328 17.728 41.888 30.272 65.984 40.128 38.112 15.552 77.408 25.92 118.912 26.272 18.72 0.16 37.472 0.448 56.192 1.152 30.336 1.12 60.48 3.968 89.856 12.224 53.632 15.072 91.424 47.36 108.256 101.344 6.176 19.776 10.112 40.224 14.752 60.448 3.584 15.552 5.056 31.616 12.608 46.112 12.608 24.192 31.744 41.888 54.848 55.616 5.92 3.52 12.096 6.528 19.136 10.336-22.88-4.672-41.6-14.496-56.832-30.912-16.32-17.568-26.976-38.336-34.688-60.736-7.776-22.496-14.208-45.504-22.848-67.68-20.128-51.68-55.968-86.112-111.488-97.92-27.744-5.888-55.936-7.584-84.16-9.6-28.352-2.048-56.896-3.008-84.896-7.392-81.44-12.704-144.48-54.496-189.056-123.968-0.544-0.864-1.248-1.632-2.656-3.392 0.384 2.56 0.512 3.904 0.8 5.216 4.192 19.904 14.24 36.8 27.712 51.584a246.176 246.176 0 0 0 116.64 72c38.112 10.912 77.216 14.368 116.544 16.32 30.944 1.568 61.856 3.488 92.448 9.056 47.36 8.576 83.296 32.896 106.528 75.36 0.672 1.216 1.152 2.528 1.728 3.808a3.712 3.712 0 0 1-2.208-1.664c-21.952-31.392-51.296-52.384-88.384-61.984-33.728-8.736-68.352-9.568-102.944-10.048-25.536-0.352-51.104 0.288-76.608-0.544-18.784-0.608-37.632-3.36-54.24-12.736-22.816-12.864-45.632-25.952-67.104-40.832-33.984-23.552-60.096-54.112-75.328-93.184-0.192-0.544-0.672-0.96-1.696-2.4-0.448 9.76-2.016 18.56-0.96 27.008 2.656 21.664 12.704 40.416 25.696 57.6 22.88 30.24 52.992 51.616 85.952 69.472 2.688 1.44 5.664 2.624 7.936 4.576 19.2 16.736 41.408 28.544 64.064 39.68 4.384 2.144 8.96 4.608 12.288 8.032 8.832 9.152 18.4 18.016 25.216 28.608 25.536 39.648 34.528 82.976 27.04 129.856-3.232 20.16-5.344 40.544-2.72 61.056 3.2 25.024 13.824 45.44 36.416 58.24 3.296 1.856 4.352 3.552 3.968 7.456-2.848 28.96 3.328 55.328 24.288 76.672 23.456 23.872 52.224 36.128 85.568 36.32 43.808 0.256 71.04-26.912 70.496-69.152-0.256-19.712-21.44-39.52-41.12-38.432-10.496 0.608-17.024 8.576-14.848 18.432 0.544-1.088 0.928-1.952 1.408-2.816 1.92-3.68 3.904-7.712 8.736-7.488 4.96 0.224 7.168 4.288 8.704 8.32a31.168 31.168 0 0 1 0 23.936c-8.8 20.288-25.408 30.048-46.432 32.896-20.608 2.816-34.976-7.232-45.312-24.096-9.408-15.36-11.584-32.448-11.616-50.08 0-4.192 1.024-6.176 5.504-7.296 11.84-2.944 22.4-8.704 32.032-16.16-11.68 5.088-23.488 9.44-37.696 9.952 2.912-14.752 4.768-28.96 8.576-42.624 7.072-25.376 15.648-50.336 22.976-75.648 14.72-50.72 5.92-95.968-32.416-133.952-3.104-3.104-6.4-6.016-9.632-8.992a6.208 6.208 0 0 1 3.968 0.448c12.096 5.824 24.256 11.552 36.192 17.696 1.984 1.024 3.808 3.84 4.32 6.144 3.104 14.656 5.568 29.44 8.704 44.064 8.736 40.928 20.8 80.704 40.736 117.76 17.632 32.736 38.464 62.848 70.688 83.072 17.152 10.752 34.56 21.184 52.416 30.688 24.192 12.864 49.216 24.096 73.312 37.152 25.92 14.016 38.56 41.664 34.08 70.752-4.32 28.16-17.984 51.456-38.752 70.144-32.672 29.376-66.176 57.824-99.488 86.464-3.136 2.688-3.68 5.024-2.72 8.736 4.704 17.952 16.032 30.176 32.8 37.344 6.624 2.848 13.856 4.288 20.8 6.336h21.472c10.912-3.072 21.888-6.016 32.736-9.28 3.328-0.992 6.432-2.88 10.496-4.768-4.352-1.6-7.808-2.752-11.2-4.16-20-8.32-26.56-22.72-19.328-43.168 6.112-17.312 17.312-31.488 28.672-45.568 11.52-14.304 23.104-28.576 34.08-43.264 4.736-6.368 8.32-13.632 11.904-20.768 1.632-3.232 3.36-4.224 6.944-4.192 35.616 0.416 65.376-12.32 88.32-40 12.064-14.592 16.544-32.352 19.52-50.304 1.888-11.424 1.088-23.328 1.632-34.976a7.936 7.936 0 0 1 1.472-4.544c15.488-19.2 24.192-41.184 26.944-65.632 0.128-1.152 0.576-2.272 0.864-3.424v-24.512c-1.472-8-2.496-16.096-4.512-23.968zM494.272 505.92a219.584 219.584 0 0 1-7.424 60.608c-8.256 31.552-17.024 63.008-25.664 94.816a36.32 36.32 0 0 1-19.232-18.016c-5.888-11.552-8.32-24.032-10.176-36.704-3.328-22.688-1.152-45.056 2.4-67.584 4.384-27.936 4.8-55.968-3.104-83.552a111.712 111.712 0 0 0-28.96-49.184l-3.488-3.552-0.096-0.096-0.704-1.472c23.584 11.2 46.048 22.08 65.28 38.528 20.32 17.408 30.624 39.36 31.2 66.176z m152.768-299.52c-0.864-0.8-1.76-1.568-2.08-3.296 11.136 5.92 23.008 10.784 33.28 17.952a235.904 235.904 0 0 1 83.232 101.76c5.056 11.68 7.392 23.968 6.912 36.8-0.992 26.016-1.792 52.032-2.688 79.2-10.688-10.112-18.56-21.312-22.08-34.528a479.616 479.616 0 0 1-10.208-49.856c-3.84-24.672-7.968-49.216-21.856-70.56-18.432-28.32-39.264-54.752-64.512-77.472z m-91.552 248.992l-2.368-15.392c2.464 1.984 4 3.2 5.472 4.448 26.368 22.72 43.264 51.68 55.2 83.904 12.384 33.472 28.608 64.768 53.76 90.624 6.976 7.168 14.72 13.6 21.344 19.648-69.28-42.144-120.256-98.944-133.376-183.296z m127.008 70.464c-7.872-22.944-13.792-46.528-20.608-69.856l1.536-0.768c4.576 13.344 8.736 26.816 13.824 39.936 4.48 11.552 9.376 23.008 15.168 33.952 16.768 31.68 42.304 52.032 77.888 59.744 26.72 5.76 47.904 11.424 68.704 17.952l-5.568-1.504c16.512 5.056 31.36 13.824 44.512 26.72-10.304-2.336-19.68-4.928-29.216-6.528-19.136-3.232-38.464-5.312-57.504-8.96-52.832-10.144-90.912-38.784-108.768-90.688z m190.24 89.184c8.544 6.112 14.848 13.568 19.264 22.56l-19.264-22.56z m-31.456 225.664c0.608-2.048 1.088-3.776 1.664-5.44 12.512-37.024 6.528-71.808-13.088-104.768-6.592-11.104-16.448-19.104-27.552-25.312-20.768-11.648-41.856-22.72-62.656-34.304-10.816-6.016-21.344-12.608-32-18.944l0.832-1.152c21.12 11.84 43.936 18.944 67.328 24.384 16.896 3.936 33.888 7.424 50.688 11.776 20.896 5.408 40.192 13.92 54.528 31.04 6.976 8.32 12.192 17.568 15.52 27.904 0.928 2.88 0.48 4.672-2.464 6.08-7.936 3.84-15.744 7.936-23.392 12.64l27.616-7.648c7.52 32.192-21.184 74.752-56.992 83.744z m107.68-143.776c-0.512 0.992-1.12 1.952-1.28 2.24-7.168-11.2-13.952-22.72-21.728-33.536-4.416-6.144-10.496-11.072-15.712-16.672-1.184-1.28-2.528-2.944-2.624-4.512-2.24-30.976-18.944-53.216-42.848-71.072-20.672-15.456-43.872-26.112-68.288-33.952-16.288-5.216-28.864-14.88-39.296-27.904-16.128-20.096-27.616-42.848-38.176-66.144-3.616-8-6.56-16.288-9.824-24.448l1.12-0.576c0.608 0.64 1.28 1.248 1.792 1.952a128.96 128.96 0 0 0 52.736 43.936c1.888 0.896 4.224 2.752 4.672 4.576 9.088 36.672 32.768 61.568 65.12 78.4 15.264 7.936 32.16 12.8 48.384 18.88 9.376 3.52 19.04 6.368 28.32 10.112 27.36 11.04 41.472 32.64 46.624 60.672 3.712 20.224 0.128 39.616-8.96 58.016zM91.232 511.072c10.976-3.648 22.144-6.688 33.024-10.592 19.584-7.04 30.784-21.632 35.776-41.408 2.816-11.104 2.464-22.272 0.384-33.44-3.84-20.48-12.256-39.328-22.272-57.312-17.12-30.752-18.56-62.688-9.536-95.872 5.92-21.824 15.904-41.92 25.92-62.048 1.792-3.584 3.168-7.36 4.704-11.04-1.28-0.064-1.856 0.224-2.208 0.704-14.912 19.968-28.416 40.768-37.376 64.192-8.576 22.368-12 45.312-7.744 69.12 3.296 18.336 11.392 34.784 19.424 51.36 5.536 11.424 11.552 23.008 14.464 35.232 6.4 26.912-3.104 46.944-27.04 58.368-7.2 3.424-14.72 6.176-22.144 9.152-10.08 4.032-20.512 7.392-30.272 12.128a41.504 41.504 0 0 0-22.976 29.6c-0.16 0.768-0.672 1.472-0.992 2.208v22.496l4.256 19.84c1.056-2.016 0.992-3.872 1.056-5.728 0.576-12.576 3.008-24.576 10.432-35.2 8.16-11.744 20.16-17.408 33.088-21.696z" fill="#7cacd6" p-id="12858"></path><path d="M596.48 847.936c-5.344-4.96-10.688-10.24-16.928-13.856-70.624-40.832-144.384-48.256-221.248-19.872-4 1.472-7.072 1.472-10.368-1.024-5.696-4.32-11.488-8.544-17.216-12.8-22.4-16.608-44.672-33.472-67.36-49.696-6.112-4.384-13.472-7.2-20.48-10.176-4.832-2.048-8.8-0.608-12.48 3.776-21.536 25.856-28.416 54.528-18.88 87.264 4.352 14.944 7.392 30.368 9.824 45.76 1.152 7.328-0.544 15.072-0.96 22.88 3.36-0.832 6.752-1.92 10.24-2.496 7.488-1.28 15.104-3.744 22.496-3.168 41.824 3.264 83.072 10.08 123.264 22.368 34.24 10.464 67.04 24.192 94.848 47.296 11.68 9.696 21.76 21.248 32.576 31.936 5.216-6.88 11.104-14.784 17.152-22.56 19.712-25.408 39.808-50.56 59.104-76.288 7.392-9.888 13.152-20.992 19.36-31.744 3.712-6.432 2.368-12.704-2.944-17.632zM261.568 564.64c18.176 5.632 36.128 12.032 54.304 17.792a10.72 10.72 0 0 0 7.52-1.024c17.44-9.376 29.024-23.808 35.872-42.24 0.544-1.472 1.216-2.912 1.792-4.352l1.664 0.288-2.656 50.4c14.112-1.12 24.576-8.448 28.768-21.152 6.464-19.552 3.296-39.232 0.512-59.584-9.952 7.68-19.104 14.976-28.512 21.92-14.208 10.496-29.44 19.104-47.136 22.208-13.408 2.368-25.536-6.912-25.92-20.512-0.256-9.472-3.552-15.232-13.088-17.792-6.944-1.856-9.568-6.784-9.248-14.016 0.064-1.696 0.352-3.36 0.608-5.632l-2.56-1.024c-9.888-3.648-13.568-9.6-12.384-20.032 0.224-2.016 0.64-4.064 0.576-6.08-0.128-4.512-1.408-7.776-6.752-9.12-5.856-1.472-11.392-4.352-16.992-6.816-3.936-1.728-5.152-4.768-4.32-9.152 2.016-10.528 3.296-21.184 5.536-31.68a76.672 76.672 0 0 0-8.384-55.552c-9.184-16.608-16.352-34.4-23.36-52.064-11.424-28.768-22.304-57.792-28.672-88.224a559.072 559.072 0 0 1-1.6-8.288c-11.616 20.992-22.528 40.8-29.76 62.336a151.2 151.2 0 0 0-6.976 27.616c-3.68 27.36 1.152 53.856 12.736 78.592 9.792 20.928 21.856 40.736 32.384 61.344 4.768 9.312 9.312 19.008 12.096 29.056 3.872 13.92-1.12 24.608-13.984 31.072-8.288 4.16-17.344 6.912-26.208 9.76-13.248 4.288-27.04 7.168-39.936 12.32-32.512 12.992-48.384 38.336-46.656 73.184 0.992 19.936 7.872 38.56 13.728 57.408 4.512 14.592 9.312 29.248 11.68 44.256 2.688 17.248-5.088 26.304-22.4 29.92-3.808 0.8-7.712 1.248-12.16 1.952 20.064 14.016 60 7.68 70.432-24.384a62.72 62.72 0 0 0 2.496-31.264c-2.848-14.848-6.784-29.472-9.792-44.32-4.608-22.688 0.64-35.52 21.184-46.08 14.752-7.584 30.72-12.704 46.176-18.88 1.12-0.448 2.336-0.608 3.36-0.864-9.792 5.888-19.968 11.104-29.184 17.696-26.24 18.88-36.288 44.8-30.336 76.384 2.56 13.664 7.2 26.912 10.592 40.416 6.112 24.384-0.96 41.12-22.528 54.08-2.816 1.696-5.696 3.264-8.352 4.8h34.048l0.704-11.424c2.112-37.408 4.32-74.784 6.272-112.192 0.928-17.6 6.496-33.28 17.76-46.848a58.08 58.08 0 0 1 36.8-21.088c20.704-3.2 40.736 0.704 60.352 6.784z m-6.848-45.088c-2.656 10.656-21.472 22.784-35.936 24.544l35.936-24.544z" fill="#7cacd6" p-id="12859"></path></svg>