<?xml version="1.0" standalone="no"?><!DOCTYPE svg PUBLIC "-//W3C//DTD SVG 1.1//EN" "http://www.w3.org/Graphics/SVG/1.1/DTD/svg11.dtd"><svg t="1644474942841" class="icon" viewBox="0 0 1120 1024" version="1.1" xmlns="http://www.w3.org/2000/svg" p-id="1559" xmlns:xlink="http://www.w3.org/1999/xlink" width="218.75" height="200"><defs><style type="text/css"></style></defs><path d="M857.6 248c-28-24.8-92.8-59.2-145.6-11.2-14.4 5.6-82.4 28-144 27.2h-1.6-0.8c-61.6 0.8-123.2-21.6-136-26.4-52.8-48.8-117.6-14.4-145.6 10.4-8 7.2-204 188-136.8 517.6 0.8 5.6 8.8 49.6 44.8 68.8 10.4 5.6 22.4 8.8 36 8.8 16.8 0 36-4.8 56-14.4 95.2-45.6 161.6-87.2 168.8-92.8 20-10.4 76-34.4 113.6-33.6 43.2-1.6 114.4 29.6 123.2 34.4 8.8 5.6 74.4 47.2 168.8 92 20.8 9.6 39.2 14.4 56 14.4 12.8 0 24.8-3.2 36-8.8 36-19.2 44-63.2 44.8-68.8 65.6-329.6-129.6-510.4-137.6-517.6z m105.6 512v0.8s-5.6 33.6-28 45.6c-15.2 8-36.8 5.6-63.2-6.4-97.6-47.2-165.6-90.4-166.4-91.2l-1.6-0.8c-3.2-1.6-86.4-39.2-139.2-37.6-52.8 0-124 36-127.2 37.6l-1.6 0.8c-0.8 0.8-68 44-166.4 91.2-26.4 12.8-47.2 15.2-63.2 7.2-23.2-12-28-45.6-28-45.6v-0.8c-63.2-312 124.8-486.4 127.2-488 0 0 16-14.4 36.8-21.6 26.4-9.6 48.8-5.6 67.2 12.8l2.4 2.4 3.2 0.8c3.2 1.6 76 31.2 151.2 30.4 76 2.4 157.6-28.8 161.6-29.6l3.2-0.8 2.4-2.4c44.8-43.2 101.6 7.2 104 9.6 0-0.8 188.8 172.8 125.6 485.6z" p-id="1560" fill="#7cacd6"></path><path d="M473.6 464.8h-80.8v-81.6c0-21.6-33.6-21.6-33.6 0v81.6h-81.6c-21.6 0-21.6 33.6 0 33.6h81.6v80.8c0 21.6 33.6 21.6 33.6 0v-80.8h80.8c22.4 0 22.4-33.6 0-33.6z" p-id="1561" fill="#7cacd6"></path><path d="M672.8 401.6m-40.8 0a40.8 40.8 0 1 0 81.6 0 40.8 40.8 0 1 0-81.6 0Z" p-id="1562" fill="#7cacd6"></path><path d="M799.2 401.6m-40.8 0a40.8 40.8 0 1 0 81.6 0 40.8 40.8 0 1 0-81.6 0Z" p-id="1563" fill="#7cacd6"></path><path d="M672.8 523.2m-40.8 0a40.8 40.8 0 1 0 81.6 0 40.8 40.8 0 1 0-81.6 0Z" p-id="1564" fill="#7cacd6"></path><path d="M799.2 523.2m-40.8 0a40.8 40.8 0 1 0 81.6 0 40.8 40.8 0 1 0-81.6 0Z" p-id="1565" fill="#7cacd6"></path></svg>