<?xml version="1.0" standalone="no"?><!DOCTYPE svg PUBLIC "-//W3C//DTD SVG 1.1//EN" "http://www.w3.org/Graphics/SVG/1.1/DTD/svg11.dtd"><svg t="1644475871542" class="icon" viewBox="0 0 1024 1024" version="1.1" xmlns="http://www.w3.org/2000/svg" p-id="26100" xmlns:xlink="http://www.w3.org/1999/xlink" width="200" height="200"><defs><style type="text/css"></style></defs><path d="M673.13 261.572c19.92-6.082 35.512-21.676 41.598-41.598 6.084 19.924 21.672 35.516 41.596 41.598-19.924 6.086-35.512 21.678-41.596 41.6C708.642 283.25 693.05 267.658 673.13 261.572zM454.786 489.926c11.41-37.352 40.642-66.584 77.996-77.994-37.352-11.408-66.584-40.638-77.996-77.992-11.408 37.354-40.642 66.582-77.992 77.992C414.144 423.342 443.378 452.574 454.786 489.926zM774.334 210.478c6.944-22.728 24.732-40.518 47.458-47.458-22.728-6.942-40.522-24.73-47.458-47.458-6.94 22.724-24.728 40.514-47.458 47.458C749.606 169.962 767.392 187.752 774.334 210.478zM635.838 233.772c8.602-28.164 30.642-50.208 58.804-58.808C666.48 166.36 644.44 144.32 635.836 116.156c-8.6 28.162-30.644 50.208-58.808 58.806C605.192 183.564 627.236 205.61 635.838 233.772zM527.146 447.436c-17.752 9.218-31.784 24.346-39.668 42.882 70.516 17.71 62.36 49.81 12.28 66.792-81.138 27.516-208.99 27.968-289.932 0-50.342-17.394-50.276-48.37 0-63.478 55.334-16.63 135.15-21.47 205.474-15.024-18.348-28.832-65.164-56.348-113.956-53.786C194.052 433.106 100 466.628 100 525.372c0 144.996 509.588 145.056 509.588 0C609.588 490.498 576.472 464.526 527.146 447.436zM924 601.042l-63.126 63.124L431.046 234.34l63.124-63.126L924 601.042zM568.882 283.614l-74.712-74.712-25.438 25.44 74.708 74.71L568.882 283.614zM566.96 866.582c-72.842 56.926-353.376 54.68-428.158 0 39.926-82.508 35.208-172.238 12.022-238.27 107.744 49.678 306.92 48.86 411.97-1.89C538.34 696.152 526.656 779.676 566.96 866.582zM515.5 855.556c-15.75-41.252-26.624-120.042-12.624-174.376l-29.3 6.46c-9.834 45.332-4.258 124.192 14.076 175.192C494.21 864.226 510.458 859.98 515.5 855.556z" p-id="26101" fill="#7cacd6"></path></svg>