<?xml version="1.0" standalone="no"?><!DOCTYPE svg PUBLIC "-//W3C//DTD SVG 1.1//EN" "http://www.w3.org/Graphics/SVG/1.1/DTD/svg11.dtd"><svg t="1644475450220" class="icon" viewBox="0 0 1024 1024" version="1.1" xmlns="http://www.w3.org/2000/svg" p-id="9891" xmlns:xlink="http://www.w3.org/1999/xlink" width="200" height="200"><defs><style type="text/css"></style></defs><path d="M898.609687 470.334042c0.779759-9.44614 1.730411-18.845207 1.73041-28.475542 0-207.850885-174.745906-376.35974-390.30024-376.35974S119.74064 234.007615 119.74064 441.8585c0 9.630335 0.950651 19.029402 1.730411 28.475542-34.137495 19.051915-57.488319 55.115272-57.488319 96.978728v167.271678c0 61.58052 49.923016 111.514793 111.514793 111.514793 0 0 111.617124 0.138146 111.513769 0 59.253522-2.63706 111.514793-51.608402 111.514793-111.514793V567.31277c0-61.58052-49.934273-111.514793-111.514793-111.514793H175.497525c0-185.773054 149.778258-334.542332 334.541309-334.542332 184.765097 0 334.544379 135.701658 334.544379 334.542332H733.06842c-61.591777 0-111.515816 49.934273-111.515817 111.514793v167.271678c0 59.906391 52.261271 108.87671 111.515817 111.514793-0.103354 0.160659 55.755862 0 55.755861 0v83.634815c0 15.383362 12.483312 27.878954 27.878954 27.878954 15.396665 0 27.878954-12.495592 27.878954-27.878954v-83.634815c61.590753 0 111.514793-49.934273 111.514793-111.514793V567.31277c0.001023-41.863457-23.362081-77.926814-57.487295-96.978728z m-611.597369 41.222866c30.79026 0 55.756885 24.965601 55.756884 55.755862v167.271678c0 30.79026-24.966625 55.756885-55.756884 55.756885h-14.520715c-13.651928-15.485693-71.037916-94.26185-20.694322-278.785448h35.215037z m-82.168418 0s-62.703087 168.407548 21.203928 278.785448h-50.54928c-30.801517 0-55.756885-24.966625-55.756885-55.756885V567.31277c0-30.79026 24.955368-55.755862 55.756885-55.755862h29.345352z m472.467635 223.02754V567.31277c0-30.79026 24.956392-55.755862 55.757908-55.755862h35.214013c50.343595 184.522574-7.04137 263.299755-20.694321 278.785448H733.069443c-30.80254-0.001023-55.757908-24.967648-55.757908-55.757908z m223.028562 0c0 30.79026-24.965601 55.756885-55.755861 55.756885h-50.54928c83.894735-110.376876 21.203928-278.785447 21.203928-278.785448h29.346375c30.79026 0 55.755862 24.965601 55.755862 55.755862v167.272701z" fill="#7cacd6" p-id="9892"></path></svg>