<?xml version="1.0" standalone="no"?><!DOCTYPE svg PUBLIC "-//W3C//DTD SVG 1.1//EN" "http://www.w3.org/Graphics/SVG/1.1/DTD/svg11.dtd"><svg t="1644680112084" class="icon" viewBox="0 0 1024 1024" version="1.1" xmlns="http://www.w3.org/2000/svg" p-id="30914" xmlns:xlink="http://www.w3.org/1999/xlink" width="200" height="200"><defs><style type="text/css"></style></defs><path d="M1024 512c0-282.752-229.248-512-512-512S0 229.248 0 512s229.248 512 512 512 512-229.248 512-512zM68.256 512C68.256 267.328 267.328 68.256 512 68.256c244.672 0 443.744 199.072 443.744 443.744 0 244.672-199.072 443.744-443.744 443.744-244.672 0-443.744-199.072-443.744-443.744z" p-id="30915" fill="#d97568"></path><path d="M273.472 578.688c0-8.736 3.36-17.472 9.984-24.16l204.384-204.32c0-0.064 0.064-0.064 0.064-0.064l0.064-0.064 0.064-0.064 0.064-0.096 0.064-0.064s0 0.48 0.096 0.48c6.4-6.208 14.656-8.992 22.912-8.992h0.096v-0.544s0-0.288 0.064-0.288v0.416s0 0.416 0.064 0.416h0.064v-0.544s0-0.288 0.064-0.288v-0.128s0-0.064 0.064-0.064h0.224l0.064 0.544v0.544h0.064l0.064-0.544v-0.288l0.064 0.416v0.416h0.064c8.32 0 16.544 2.784 22.944 8.992l0.064-0.192v-0.064h0.128l0.096 0.064 0.064 0.064 0.064 0.064 205.696 205.632a34.144 34.144 0 0 1-48.288 48.256l-180.96-181.6-180.224 180.16a34.144 34.144 0 0 1-58.24-24.096z" p-id="30916" fill="#d97568"></path></svg>